<svg id="my-svg" width="100%" xmlns="http://www.w3.org/2000/svg" xmlns:xlink="http://www.w3.org/1999/xlink" class="flowchart" style="max-width: 508.406px; background-color: transparent;" viewBox="0 0 508.40625 616.125" role="graphics-document document" aria-roledescription="flowchart-v2"><style>#my-svg{font-family:Inter,system-ui,sans-serif;font-size:14px;fill:#ccc;}@keyframes edge-animation-frame{from{stroke-dashoffset:0;}}@keyframes dash{to{stroke-dashoffset:0;}}#my-svg .edge-animation-slow{stroke-dasharray:9,5!important;stroke-dashoffset:900;animation:dash 50s linear infinite;stroke-linecap:round;}#my-svg .edge-animation-fast{stroke-dasharray:9,5!important;stroke-dashoffset:900;animation:dash 20s linear infinite;stroke-linecap:round;}#my-svg .error-icon{fill:#a44141;}#my-svg .error-text{fill:#ddd;stroke:#ddd;}#my-svg .edge-thickness-normal{stroke-width:1px;}#my-svg .edge-thickness-thick{stroke-width:3.5px;}#my-svg .edge-pattern-solid{stroke-dasharray:0;}#my-svg .edge-thickness-invisible{stroke-width:0;fill:none;}#my-svg .edge-pattern-dashed{stroke-dasharray:3;}#my-svg .edge-pattern-dotted{stroke-dasharray:2;}#my-svg .marker{fill:#818cf8;stroke:#818cf8;}#my-svg .marker.cross{stroke:#818cf8;}#my-svg svg{font-family:Inter,system-ui,sans-serif;font-size:14px;}#my-svg p{margin:0;}#my-svg .label{font-family:Inter,system-ui,sans-serif;color:#ccc;}#my-svg .cluster-label text{fill:#F9FFFE;}#my-svg .cluster-label span{color:#F9FFFE;}#my-svg .cluster-label span p{background-color:transparent;}#my-svg .label text,#my-svg span{fill:#ccc;color:#ccc;}#my-svg .node rect,#my-svg .node circle,#my-svg .node ellipse,#my-svg .node polygon,#my-svg .node path{fill:#1f2020;stroke:#6366f1;stroke-width:1px;}#my-svg .rough-node .label text,#my-svg .node .label text,#my-svg .image-shape .label,#my-svg .icon-shape .label{text-anchor:middle;}#my-svg .node .katex path{fill:#000;stroke:#000;stroke-width:1px;}#my-svg .rough-node .label,#my-svg .node .label,#my-svg .image-shape .label,#my-svg .icon-shape .label{text-align:center;}#my-svg .node.clickable{cursor:pointer;}#my-svg .root .anchor path{fill:#818cf8!important;stroke-width:0;stroke:#818cf8;}#my-svg .arrowheadPath{fill:lightgrey;}#my-svg .edgePath .path{stroke:#818cf8;stroke-width:1px;}#my-svg .flowchart-link{stroke:#818cf8;fill:none;}#my-svg .edgeLabel{background-color:#1e293b;text-align:center;}#my-svg .edgeLabel p{background-color:#1e293b;}#my-svg .edgeLabel rect{opacity:0.5;background-color:#1e293b;fill:#1e293b;}#my-svg .labelBkg{background-color:rgba(30, 41, 59, 0.5);}#my-svg .cluster rect{fill:#1e293b;stroke:#4f46e5;stroke-width:1px;}#my-svg .cluster text{fill:#F9FFFE;}#my-svg .cluster span{color:#F9FFFE;}#my-svg div.mermaidTooltip{position:absolute;text-align:center;max-width:200px;padding:2px;font-family:Inter,system-ui,sans-serif;font-size:12px;background:#0f172a;border:1px solid rgba(255, 255, 255, 0.25);border-radius:2px;pointer-events:none;z-index:100;}#my-svg .flowchartTitleText{text-anchor:middle;font-size:18px;fill:#ccc;}#my-svg rect.text{fill:none;stroke-width:0;}#my-svg .icon-shape,#my-svg .image-shape{background-color:#1e293b;text-align:center;}#my-svg .icon-shape p,#my-svg .image-shape p{background-color:#1e293b;padding:2px;}#my-svg .icon-shape .label rect,#my-svg .image-shape .label rect{opacity:0.5;background-color:#1e293b;fill:#1e293b;}#my-svg .label-icon{display:inline-block;height:1em;overflow:visible;vertical-align:-0.125em;}#my-svg .node .label-icon path{fill:currentColor;stroke:revert;stroke-width:revert;}#my-svg .node .neo-node{stroke:#6366f1;}#my-svg [data-look="neo"].node rect,#my-svg [data-look="neo"].cluster rect,#my-svg [data-look="neo"].node polygon{stroke:url(#my-svg-gradient);filter:drop-shadow( 1px 2px 2px rgba(185,185,185,1));}#my-svg [data-look="neo"].node path{stroke:url(#my-svg-gradient);stroke-width:1px;}#my-svg [data-look="neo"].node .outer-path{filter:drop-shadow( 1px 2px 2px rgba(185,185,185,1));}#my-svg [data-look="neo"].node .neo-line path{stroke:#6366f1;filter:none;}#my-svg [data-look="neo"].node circle{stroke:url(#my-svg-gradient);filter:drop-shadow( 1px 2px 2px rgba(185,185,185,1));}#my-svg [data-look="neo"].node circle .state-start{fill:#000000;}#my-svg [data-look="neo"].icon-shape .icon{fill:url(#my-svg-gradient);filter:drop-shadow( 1px 2px 2px rgba(185,185,185,1));}#my-svg [data-look="neo"].icon-shape .icon-neo path{stroke:url(#my-svg-gradient);filter:drop-shadow( 1px 2px 2px rgba(185,185,185,1));}#my-svg :root{--mermaid-font-family:"trebuchet ms",verdana,arial,sans-serif;}</style><g><marker id="my-svg_flowchart-v2-pointEnd" class="marker flowchart-v2" viewBox="0 0 10 10" refX="5" refY="5" markerUnits="userSpaceOnUse" markerWidth="8" markerHeight="8" orient="auto"><path d="M 0 0 L 10 5 L 0 10 z" class="arrowMarkerPath" style="stroke-width: 1; stroke-dasharray: 1, 0;"/></marker><marker id="my-svg_flowchart-v2-pointStart" class="marker flowchart-v2" viewBox="0 0 10 10" refX="4.5" refY="5" markerUnits="userSpaceOnUse" markerWidth="8" markerHeight="8" orient="auto"><path d="M 0 5 L 10 10 L 10 0 z" class="arrowMarkerPath" style="stroke-width: 1; stroke-dasharray: 1, 0;"/></marker><marker id="my-svg_flowchart-v2-pointEnd-margin" class="marker flowchart-v2" viewBox="0 0 11.5 14" refX="11.5" refY="7" markerUnits="userSpaceOnUse" markerWidth="10.5" markerHeight="14" orient="auto"><path d="M 0 0 L 11.5 7 L 0 14 z" class="arrowMarkerPath" style="stroke-width: 0; stroke-dasharray: 1, 0;"/></marker><marker id="my-svg_flowchart-v2-pointStart-margin" class="marker flowchart-v2" viewBox="0 0 11.5 14" refX="1" refY="7" markerUnits="userSpaceOnUse" markerWidth="11.5" markerHeight="14" orient="auto"><polygon points="0,7 11.5,14 11.5,0" class="arrowMarkerPath" style="stroke-width: 0; stroke-dasharray: 1, 0;"/></marker><marker id="my-svg_flowchart-v2-circleEnd" class="marker flowchart-v2" viewBox="0 0 10 10" refX="11" refY="5" markerUnits="userSpaceOnUse" markerWidth="11" markerHeight="11" orient="auto"><circle cx="5" cy="5" r="5" class="arrowMarkerPath" style="stroke-width: 1; stroke-dasharray: 1, 0;"/></marker><marker id="my-svg_flowchart-v2-circleStart" class="marker flowchart-v2" viewBox="0 0 10 10" refX="-1" refY="5" markerUnits="userSpaceOnUse" markerWidth="11" markerHeight="11" orient="auto"><circle cx="5" cy="5" r="5" class="arrowMarkerPath" style="stroke-width: 1; stroke-dasharray: 1, 0;"/></marker><marker id="my-svg_flowchart-v2-circleEnd-margin" class="marker flowchart-v2" viewBox="0 0 10 10" refY="5" refX="12.25" markerUnits="userSpaceOnUse" markerWidth="14" markerHeight="14" orient="auto"><circle cx="5" cy="5" r="5" class="arrowMarkerPath" style="stroke-width: 0; stroke-dasharray: 1, 0;"/></marker><marker id="my-svg_flowchart-v2-circleStart-margin" class="marker flowchart-v2" viewBox="0 0 10 10" refX="-2" refY="5" markerUnits="userSpaceOnUse" markerWidth="14" markerHeight="14" orient="auto"><circle cx="5" cy="5" r="5" class="arrowMarkerPath" style="stroke-width: 0; stroke-dasharray: 1, 0;"/></marker><marker id="my-svg_flowchart-v2-crossEnd" class="marker cross flowchart-v2" viewBox="0 0 11 11" refX="12" refY="5.2" markerUnits="userSpaceOnUse" markerWidth="11" markerHeight="11" orient="auto"><path d="M 1,1 l 9,9 M 10,1 l -9,9" class="arrowMarkerPath" style="stroke-width: 2; stroke-dasharray: 1, 0;"/></marker><marker id="my-svg_flowchart-v2-crossStart" class="marker cross flowchart-v2" viewBox="0 0 11 11" refX="-1" refY="5.2" markerUnits="userSpaceOnUse" markerWidth="11" markerHeight="11" orient="auto"><path d="M 1,1 l 9,9 M 10,1 l -9,9" class="arrowMarkerPath" style="stroke-width: 2; stroke-dasharray: 1, 0;"/></marker><marker id="my-svg_flowchart-v2-crossEnd-margin" class="marker cross flowchart-v2" viewBox="0 0 15 15" refX="17.7" refY="7.5" markerUnits="userSpaceOnUse" markerWidth="12" markerHeight="12" orient="auto"><path d="M 1,1 L 14,14 M 1,14 L 14,1" class="arrowMarkerPath" style="stroke-width: 2.5;"/></marker><marker id="my-svg_flowchart-v2-crossStart-margin" class="marker cross flowchart-v2" viewBox="0 0 15 15" refX="-3.5" refY="7.5" markerUnits="userSpaceOnUse" markerWidth="12" markerHeight="12" orient="auto"><path d="M 1,1 L 14,14 M 1,14 L 14,1" class="arrowMarkerPath" style="stroke-width: 2.5; stroke-dasharray: 1, 0;"/></marker><g class="root"><g class="clusters"/><g class="edgePaths"><path d="M246.055,44.5L245.971,48.583C245.888,52.667,245.721,60.833,245.638,68.417C245.555,76,245.555,83,245.555,86.5L245.555,90" id="my-svg-L_WRITE_RUNTYPE_0" class="edge-thickness-normal edge-pattern-solid edge-thickness-normal edge-pattern-solid flowchart-link" style=";" data-edge="true" data-et="edge" data-id="L_WRITE_RUNTYPE_0" data-points="W3sieCI6MjQ2LjA1NDY4NzUsInkiOjQ0LjV9LHsieCI6MjQ1LjU1NDY4NzUsInkiOjY5fSx7IngiOjI0NS41NTQ2ODc1LCJ5Ijo5NH1d" data-look="classic" marker-end="url(#my-svg_flowchart-v2-pointEnd)"/><path d="M213.456,168.026L196.206,179.293C178.955,190.559,144.454,213.092,127.204,229.609C109.953,246.125,109.953,256.625,109.953,261.875L109.953,267.125" id="my-svg-L_RUNTYPE_CUSTOM_0" class="edge-thickness-normal edge-pattern-solid edge-thickness-normal edge-pattern-solid flowchart-link" style=";" data-edge="true" data-et="edge" data-id="L_RUNTYPE_CUSTOM_0" data-points="W3sieCI6MjEzLjQ1NjA2MzcwNjc0MDMsInkiOjE2OC4wMjYzNzYyMDY3NDAzfSx7IngiOjEwOS45NTMxMjUsInkiOjIzNS42MjV9LHsieCI6MTA5Ljk1MzEyNSwieSI6MjcxLjEyNX1d" data-look="classic" marker-end="url(#my-svg_flowchart-v2-pointEnd)"/><path d="M277.653,168.026L294.904,179.293C312.154,190.559,346.655,213.092,363.906,229.609C381.156,246.125,381.156,256.625,381.156,261.875L381.156,267.125" id="my-svg-L_RUNTYPE_TESTS_0" class="edge-thickness-normal edge-pattern-solid edge-thickness-normal edge-pattern-solid flowchart-link" style=";" data-edge="true" data-et="edge" data-id="L_RUNTYPE_TESTS_0" data-points="W3sieCI6Mjc3LjY1MzMxMTI5MzI1OTY2LCJ5IjoxNjguMDI2Mzc2MjA2NzQwM30seyJ4IjozODEuMTU2MjUsInkiOjIzNS42MjV9LHsieCI6MzgxLjE1NjI1LCJ5IjoyNzEuMTI1fV0=" data-look="classic" marker-end="url(#my-svg_flowchart-v2-pointEnd)"/><path d="M109.953,343.125L109.953,347.292C109.953,351.458,109.953,359.792,118.608,367.852C127.262,375.911,144.571,383.698,153.225,387.591L161.88,391.484" id="my-svg-L_CUSTOM_JUDGE0_0" class="edge-thickness-normal edge-pattern-solid edge-thickness-normal edge-pattern-solid flowchart-link" style=";" data-edge="true" data-et="edge" data-id="L_CUSTOM_JUDGE0_0" data-points="W3sieCI6MTA5Ljk1MzEyNSwieSI6MzQzLjEyNX0seyJ4IjoxMDkuOTUzMTI1LCJ5IjozNjguMTI1fSx7IngiOjE2NS41Mjc1MzU4NjA2NTU3NSwieSI6MzkzLjEyNX1d" data-look="classic" marker-end="url(#my-svg_flowchart-v2-pointEnd)"/><path d="M381.156,343.125L381.156,347.292C381.156,351.458,381.156,359.792,372.502,367.852C363.847,375.911,346.539,383.698,337.884,387.591L329.23,391.484" id="my-svg-L_TESTS_JUDGE0_0" class="edge-thickness-normal edge-pattern-solid edge-thickness-normal edge-pattern-solid flowchart-link" style=";" data-edge="true" data-et="edge" data-id="L_TESTS_JUDGE0_0" data-points="W3sieCI6MzgxLjE1NjI1LCJ5IjozNDMuMTI1fSx7IngiOjM4MS4xNTYyNSwieSI6MzY4LjEyNX0seyJ4IjozMjUuNTgxODM5MTM5MzQ0MjUsInkiOjM5My4xMjV9XQ==" data-look="classic" marker-end="url(#my-svg_flowchart-v2-pointEnd)"/><path d="M245.555,465.125L245.555,469.292C245.555,473.458,245.555,481.792,245.555,489.458C245.555,497.125,245.555,504.125,245.555,507.625L245.555,511.125" id="my-svg-L_JUDGE0_RESULT_0" class="edge-thickness-normal edge-pattern-solid edge-thickness-normal edge-pattern-solid flowchart-link" style=";" data-edge="true" data-et="edge" data-id="L_JUDGE0_RESULT_0" data-points="W3sieCI6MjQ1LjU1NDY4NzUsInkiOjQ2NS4xMjV9LHsieCI6MjQ1LjU1NDY4NzUsInkiOjQ5MC4xMjV9LHsieCI6MjQ1LjU1NDY4NzUsInkiOjUxNS4xMjV9XQ==" data-look="classic" marker-end="url(#my-svg_flowchart-v2-pointEnd)"/></g><g class="edgeLabels"><g class="edgeLabel"><g class="label" data-id="L_WRITE_RUNTYPE_0" transform="translate(0, 0)"><foreignObject width="0" height="0"><div xmlns="http://www.w3.org/1999/xhtml" class="labelBkg" style="display: table-cell; white-space: nowrap; line-height: 1.5; max-width: 200px; text-align: center;"><span class="edgeLabel"></span></div></foreignObject></g></g><g class="edgeLabel" transform="translate(109.953125, 235.625)"><g class="label" data-id="L_RUNTYPE_CUSTOM_0" transform="translate(-69.7265625, -10.5)"><foreignObject width="139.453125" height="21"><div xmlns="http://www.w3.org/1999/xhtml" class="labelBkg" style="display: table-cell; white-space: nowrap; line-height: 1.5; max-width: 200px; text-align: center;"><span class="edgeLabel"><p>Run with custom input</p></span></div></foreignObject></g></g><g class="edgeLabel" transform="translate(381.15625, 235.625)"><g class="label" data-id="L_RUNTYPE_TESTS_0" transform="translate(-43.71875, -10.5)"><foreignObject width="87.4375" height="21"><div xmlns="http://www.w3.org/1999/xhtml" class="labelBkg" style="display: table-cell; white-space: nowrap; line-height: 1.5; max-width: 200px; text-align: center;"><span class="edgeLabel"><p>Run test cases</p></span></div></foreignObject></g></g><g class="edgeLabel"><g class="label" data-id="L_CUSTOM_JUDGE0_0" transform="translate(0, 0)"><foreignObject width="0" height="0"><div xmlns="http://www.w3.org/1999/xhtml" class="labelBkg" style="display: table-cell; white-space: nowrap; line-height: 1.5; max-width: 200px; text-align: center;"><span class="edgeLabel"></span></div></foreignObject></g></g><g class="edgeLabel"><g class="label" data-id="L_TESTS_JUDGE0_0" transform="translate(0, 0)"><foreignObject width="0" height="0"><div xmlns="http://www.w3.org/1999/xhtml" class="labelBkg" style="display: table-cell; white-space: nowrap; line-height: 1.5; max-width: 200px; text-align: center;"><span class="edgeLabel"></span></div></foreignObject></g></g><g class="edgeLabel"><g class="label" data-id="L_JUDGE0_RESULT_0" transform="translate(0, 0)"><foreignObject width="0" height="0"><div xmlns="http://www.w3.org/1999/xhtml" class="labelBkg" style="display: table-cell; white-space: nowrap; line-height: 1.5; max-width: 200px; text-align: center;"><span class="edgeLabel"></span></div></foreignObject></g></g></g><g class="nodes"><g class="node default" id="my-svg-flowchart-WRITE-0" data-look="classic" transform="translate(245.5546875, 26)"><g class="basic label-container outer-path"><path d="M-92.3984375 -18 C-26.381898679973332 -18, 39.634640140053335 -18, 92.3984375 -18 C92.3984375 -18, 92.3984375 -18, 92.3984375 -18 C92.70087915658 -17.99030128474045, 93.00332081316002 -17.980602569480904, 93.55170145965283 -17.963017069506055 C93.94152017049193 -17.925411727297, 94.33133888133102 -17.88780638508794, 94.70022641032111 -17.85222024881843 C95.10768718496918 -17.78634515067883, 95.51514795961727 -17.72047005253923, 95.83929281662469 -17.668064825839178 C96.19769465349391 -17.586261945364335, 96.55609649036312 -17.504459064889495, 96.96422001037112 -17.41130753470253 C97.26769169825602 -17.321238730693686, 97.57116338614092 -17.231169926684846, 98.07038542442517 -17.083003446192034 C98.47241804241655 -16.935051726422422, 98.87445066040794 -16.78710000665281, 99.15324358782874 -16.68450163222839 C99.39185851284056 -16.578873883185917, 99.63047343785239 -16.473246134143444, 100.20834480411605 -16.217439622243546 C100.54000025777063 -16.04441518450741, 100.87165571142519 -15.871390746771278, 101.23135343607088 -15.683736674221011 C101.5942466015297 -15.463748704722917, 101.95713976698852 -15.243760735224821, 102.21806572178987 -15.085585888053133 C102.48138665133997 -14.901904606578306, 102.74470758089006 -14.718223325103478, 103.16442704884189 -14.425445193623219 C103.43494164326887 -14.20971700326338, 103.70545623769586 -13.993988812903543, 104.06654861554019 -13.706027250644421 C104.24272923899524 -13.5460246699064, 104.41890986245028 -13.38602208916838, 104.92072341086275 -12.930288301759097 C105.0873000775653 -12.758284217190042, 105.25387674426784 -12.586280132620985, 105.72344144735568 -12.101416024703706 C105.91311510333567 -11.878614555652838, 106.10278875931566 -11.65581308660197, 106.47140418442453 -11.222816433457204 C106.65072552776057 -10.982542169897364, 106.83004687109661 -10.742267906337524, 107.1615380827452 -10.298099882199057 C107.40212449061627 -9.928494553212802, 107.64271089848737 -9.558889224226547, 107.79100723409623 -9.331066229589453 C107.9549795911794 -9.039916705586663, 108.11895194826256 -8.748767181583874, 108.357225014714 -8.325689224335035 C108.55541007013669 -7.914153716268976, 108.75359512555936 -7.502618208202918, 108.85786471428463 -7.286100176203093 C109.0137217614557 -6.901130256399528, 109.16957880862677 -6.516160336595962, 109.29086909689568 -6.216570979583546 C109.40827747926772 -5.8629556383642925, 109.52568586163977 -5.509340297145039, 109.6544588546599 -5.121496559358589 C109.71983263378405 -4.872198006383094, 109.7852064129082 -4.6228994534076, 109.94713991927283 -4.005376811213661 C110.02205303847528 -3.6207137770024107, 110.09696615767774 -3.2360507427911607, 110.1677096014601 -2.872798110600833 C110.22356956534477 -2.439559261508848, 110.27942952922945 -2.006320412416863, 110.31526153308556 -1.728414466338275 C110.33584510554108 -1.40780871058293, 110.3564286779966 -1.0872029548275852, 110.38918939161238 -0.576928396289793 C110.38918939161238 -0.2321431708435704, 110.38918939161238 0.1126420546026522, 110.38918939161238 0.5769283962897886 C110.36585595587393 0.9403654923265857, 110.34252252013546 1.3038025883633828, 110.31526153308556 1.7284144663382628 C110.259376126224 2.161850646134732, 110.20349071936243 2.595286825931202, 110.1677096014601 2.8727981106008205 C110.12305719146043 3.102078798658972, 110.07840478146075 3.331359486717123, 109.94713991927283 4.005376811213657 C109.83796511196917 4.421707668123277, 109.72879030466552 4.838038525032897, 109.6544588546599 5.121496559358577 C109.52584953837756 5.5088473288891695, 109.39724022209522 5.896198098419762, 109.29086909689569 6.216570979583534 C109.17507590206328 6.50258240952872, 109.05928270723086 6.788593839473905, 108.85786471428463 7.286100176203088 C108.7499523909353 7.51018242459179, 108.64204006758598 7.734264672980491, 108.357225014714 8.325689224335031 C108.1747202885634 8.649744846222912, 107.9922155624128 8.973800468110792, 107.79100723409623 9.33106622958945 C107.62343689071645 9.588499275958442, 107.45586654733665 9.845932322327437, 107.16153808274521 10.298099882199049 C106.97993641389311 10.54142957420847, 106.79833474504103 10.784759266217891, 106.47140418442454 11.2228164334572 C106.19023976181809 11.553088162959613, 105.90907533921163 11.883359892462027, 105.72344144735568 12.101416024703695 C105.46003461421367 12.373405206026014, 105.19662778107167 12.64539438734833, 104.92072341086276 12.930288301759093 C104.71658614849217 13.115680362268078, 104.51244888612158 13.301072422777063, 104.0665486155402 13.706027250644409 C103.75930964536364 13.95104215338785, 103.45207067518709 14.19605705613129, 103.16442704884189 14.425445193623217 C102.78979569136315 14.686771811070301, 102.4151643338844 14.948098428517387, 102.21806572178988 15.085585888053126 C101.86941604330568 15.296939372043191, 101.52076636482145 15.508292856033254, 101.23135343607088 15.68373667422101 C100.99619013271176 15.806421218954172, 100.76102682935266 15.929105763687337, 100.20834480411605 16.217439622243543 C99.94823785503043 16.332581252805248, 99.68813090594479 16.447722883366957, 99.15324358782874 16.68450163222839 C98.7821695479082 16.82106030908997, 98.41109550798767 16.95761898595155, 98.07038542442518 17.08300344619203 C97.63447313161056 17.212379926549094, 97.19856083879594 17.341756406906157, 96.96422001037115 17.411307534702527 C96.72140025388104 17.4667295595744, 96.47858049739092 17.522151584446274, 95.8392928166247 17.668064825839174 C95.4120984849395 17.737130292444515, 94.98490415325432 17.80619575904986, 94.70022641032112 17.85222024881843 C94.27116101271996 17.893611671698377, 93.8420956151188 17.935003094578324, 93.55170145965283 17.963017069506055 C93.21678211123701 17.973757281128787, 92.88186276282119 17.984497492751515, 92.3984375 18 C92.3984375 18, 92.3984375 18, 92.3984375 18 C34.00183935390451 18, -24.394758792190984 18, -92.3984375 18 C-92.70421165846908 17.99019441789119, -93.00998581693815 17.98038883578238, -93.55170145965282 17.963017069506055 C-93.89263576457027 17.93012754714416, -94.23357006948773 17.897238024782265, -94.70022641032111 17.85222024881843 C-95.04092309746927 17.797139050582583, -95.38161978461744 17.742057852346736, -95.8392928166247 17.668064825839174 C-96.18656053117793 17.58880323612602, -96.53382824573114 17.509541646412867, -96.96422001037112 17.41130753470253 C-97.25845576999664 17.323979905720694, -97.55269152962217 17.23665227673886, -98.07038542442517 17.083003446192038 C-98.31234746151345 16.993959179871, -98.55430949860173 16.90491491354996, -99.15324358782874 16.68450163222839 C-99.41337999730264 16.569346960426707, -99.67351640677654 16.454192288625023, -100.20834480411604 16.217439622243546 C-100.50849005000978 16.06085403971299, -100.80863529590351 15.904268457182432, -101.23135343607088 15.683736674221013 C-101.55958907630927 15.484758300181776, -101.88782471654764 15.285779926142538, -102.21806572178987 15.085585888053139 C-102.42282314200158 14.942755975519315, -102.62758056221328 14.799926062985492, -103.16442704884189 14.42544519362322 C-103.4750559331452 14.177726924573093, -103.78568481744853 13.930008655522967, -104.06654861554019 13.706027250644423 C-104.25423264683309 13.535577579271552, -104.441916678126 13.365127907898682, -104.92072341086275 12.930288301759106 C-105.23221995948758 12.608642540961704, -105.54371650811242 12.286996780164301, -105.72344144735568 12.101416024703703 C-105.96245273381841 11.820659767497107, -106.20146402028114 11.53990351029051, -106.47140418442453 11.222816433457206 C-106.74117130882637 10.861353063049364, -107.01093843322819 10.49988969264152, -107.1615380827452 10.29809988219906 C-107.3006618708575 10.08436838369058, -107.43978565896978 9.870636885182098, -107.79100723409623 9.33106622958946 C-107.91517875716885 9.110587116643872, -108.03935028024146 8.890108003698284, -108.357225014714 8.325689224335036 C-108.48884162713468 8.052384512499156, -108.62045823955533 7.779079800663275, -108.85786471428463 7.286100176203095 C-108.94490074523766 7.0711194970219236, -109.03193677619069 6.856138817840752, -109.29086909689568 6.2165709795835475 C-109.42759211186635 5.804783042346024, -109.56431512683702 5.3929951051085, -109.6544588546599 5.121496559358584 C-109.71586971528521 4.887310332158909, -109.77728057591051 4.653124104959233, -109.94713991927281 4.005376811213663 C-110.03020268383608 3.5788670705028083, -110.11326544839935 3.152357329791953, -110.1677096014601 2.8727981106008347 C-110.20532884585666 2.581030679821181, -110.24294809025322 2.289263249041527, -110.31526153308556 1.7284144663382852 C-110.34315029486181 1.2940244902698885, -110.37103905663805 0.8596345142014918, -110.38918939161238 0.5769283962897952 C-110.38918939161238 0.2195391533677185, -110.38918939161238 -0.13785008955435818, -110.38918939161238 -0.5769283962897864 C-110.3677258721967 -0.9112400362298705, -110.34626235278104 -1.2455516761699545, -110.31526153308556 -1.7284144663382603 C-110.25734820080669 -2.1775788352122034, -110.19943486852783 -2.626743204086146, -110.1677096014601 -2.8727981106008262 C-110.08745555537165 -3.2848856755664135, -110.00720150928319 -3.6969732405320004, -109.94713991927283 -4.005376811213655 C-109.87232936307097 -4.290661885111481, -109.79751880686912 -4.575946959009307, -109.6544588546599 -5.121496559358575 C-109.54476656626824 -5.451872254901517, -109.43507427787658 -5.782247950444459, -109.29086909689569 -6.2165709795835244 C-109.1203598390859 -6.637732142945932, -108.94985058127612 -7.058893306308341, -108.85786471428463 -7.286100176203086 C-108.7215987456717 -7.569059375652491, -108.58533277705877 -7.852018575101895, -108.357225014714 -8.32568922433503 C-108.22004935653477 -8.569258495973894, -108.08287369835553 -8.81282776761276, -107.79100723409623 -9.331066229589455 C-107.64064492278754 -9.562063117693615, -107.49028261147888 -9.793060005797775, -107.16153808274521 -10.298099882199054 C-106.93039201018071 -10.607814561595067, -106.69924593761623 -10.917529240991078, -106.47140418442454 -11.2228164334572 C-106.31033393661161 -11.412018711694998, -106.1492636887987 -11.601220989932797, -105.72344144735568 -12.101416024703695 C-105.45543480110547 -12.378154890711915, -105.18742815485525 -12.654893756720137, -104.92072341086276 -12.930288301759086 C-104.60219376096936 -13.219568501959573, -104.28366411107595 -13.508848702160062, -104.0665486155402 -13.706027250644407 C-103.80243928275873 -13.916647415293122, -103.53832994997725 -14.127267579941835, -103.1644270488419 -14.425445193623215 C-102.80748992860447 -14.67442907714195, -102.45055280836702 -14.923412960660682, -102.21806572178988 -15.085585888053124 C-101.85446586849145 -15.306002255872558, -101.49086601519299 -15.52641862369199, -101.23135343607089 -15.683736674221008 C-100.96421180224469 -15.823104293475753, -100.69707016841849 -15.962471912730498, -100.20834480411605 -16.217439622243543 C-99.90966485382765 -16.349656376210287, -99.61098490353925 -16.481873130177032, -99.15324358782874 -16.684501632228386 C-98.85492818518856 -16.79428445799733, -98.55661278254836 -16.90406728376627, -98.07038542442518 -17.08300344619203 C-97.66743367650541 -17.202597409837733, -97.26448192858564 -17.32219137348343, -96.96422001037115 -17.411307534702523 C-96.68434342385999 -17.47518753920829, -96.4044668373488 -17.539067543714054, -95.8392928166247 -17.668064825839174 C-95.41242619438296 -17.737077310923123, -94.98555957214121 -17.806089796007075, -94.70022641032112 -17.85222024881843 C-94.25627486509896 -17.895047720456162, -93.8123233198768 -17.937875192093895, -93.55170145965283 -17.963017069506055 C-93.10265469403498 -17.977417125262914, -92.65360792841713 -17.991817181019773, -92.3984375 -18 C-92.3984375 -18, -92.3984375 -18, -92.3984375 -18" stroke="none" stroke-width="0" fill="#1f2020" style=""/><path d="M-92.3984375 -18 C-35.11366183928715 -18, 22.171113821425706 -18, 92.3984375 -18 M-92.3984375 -18 C-32.72666269013504 -18, 26.945112119729913 -18, 92.3984375 -18 M92.3984375 -18 C92.3984375 -18, 92.3984375 -18, 92.3984375 -18 M92.3984375 -18 C92.3984375 -18, 92.3984375 -18, 92.3984375 -18 M92.3984375 -18 C92.7962432510481 -17.98724314384581, 93.19404900209618 -17.97448628769162, 93.55170145965283 -17.963017069506055 M92.3984375 -18 C92.64220999263051 -17.992182690635712, 92.88598248526101 -17.984365381271424, 93.55170145965283 -17.963017069506055 M93.55170145965283 -17.963017069506055 C93.91191293576095 -17.928267901623585, 94.27212441186907 -17.893518733741118, 94.70022641032111 -17.85222024881843 M93.55170145965283 -17.963017069506055 C93.979399929223 -17.921757512529286, 94.40709839879318 -17.880497955552517, 94.70022641032111 -17.85222024881843 M94.70022641032111 -17.85222024881843 C95.0065043369648 -17.802703608859474, 95.31278226360848 -17.75318696890052, 95.83929281662469 -17.668064825839178 M94.70022641032111 -17.85222024881843 C95.06159612935947 -17.793796795108335, 95.42296584839782 -17.735373341398237, 95.83929281662469 -17.668064825839178 M95.83929281662469 -17.668064825839178 C96.18967948976977 -17.58809135418054, 96.54006616291484 -17.5081178825219, 96.96422001037112 -17.41130753470253 M95.83929281662469 -17.668064825839178 C96.28044879406882 -17.567373852799346, 96.72160477151296 -17.466682879759514, 96.96422001037112 -17.41130753470253 M96.96422001037112 -17.41130753470253 C97.19043628712149 -17.34416773119649, 97.41665256387185 -17.277027927690447, 98.07038542442517 -17.083003446192034 M96.96422001037112 -17.41130753470253 C97.28481629533383 -17.316156240169843, 97.60541258029652 -17.22100494563715, 98.07038542442517 -17.083003446192034 M98.07038542442517 -17.083003446192034 C98.33312443405536 -16.986313061915343, 98.59586344368556 -16.889622677638652, 99.15324358782874 -16.68450163222839 M98.07038542442517 -17.083003446192034 C98.29137470053134 -17.001677349782486, 98.51236397663752 -16.920351253372942, 99.15324358782874 -16.68450163222839 M99.15324358782874 -16.68450163222839 C99.54192528209036 -16.512443776011576, 99.93060697635198 -16.340385919794763, 100.20834480411605 -16.217439622243546 M99.15324358782874 -16.68450163222839 C99.37580680992299 -16.585979495910678, 99.59837003201723 -16.487457359592966, 100.20834480411605 -16.217439622243546 M100.20834480411605 -16.217439622243546 C100.49068185109763 -16.07014456567876, 100.77301889807923 -15.922849509113975, 101.23135343607088 -15.683736674221011 M100.20834480411605 -16.217439622243546 C100.54998575782257 -16.039205755526325, 100.8916267115291 -15.860971888809106, 101.23135343607088 -15.683736674221011 M101.23135343607088 -15.683736674221011 C101.58960967202555 -15.466559638637953, 101.94786590798023 -15.249382603054896, 102.21806572178987 -15.085585888053133 M101.23135343607088 -15.683736674221011 C101.49958861819061 -15.521130930495122, 101.76782380031037 -15.358525186769231, 102.21806572178987 -15.085585888053133 M102.21806572178987 -15.085585888053133 C102.51933268825609 -14.875435093883086, 102.8205996547223 -14.66528429971304, 103.16442704884189 -14.425445193623219 M102.21806572178987 -15.085585888053133 C102.59533217850827 -14.822421139448073, 102.97259863522666 -14.559256390843014, 103.16442704884189 -14.425445193623219 M103.16442704884189 -14.425445193623219 C103.46239244995839 -14.187825715425143, 103.76035785107487 -13.950206237227066, 104.06654861554019 -13.706027250644421 M103.16442704884189 -14.425445193623219 C103.46270532450502 -14.18757620630013, 103.76098360016817 -13.949707218977043, 104.06654861554019 -13.706027250644421 M104.06654861554019 -13.706027250644421 C104.34226083072791 -13.455632711756389, 104.61797304591565 -13.205238172868354, 104.92072341086275 -12.930288301759097 M104.06654861554019 -13.706027250644421 C104.33410660218256 -13.46303816637221, 104.60166458882495 -13.2200490821, 104.92072341086275 -12.930288301759097 M104.92072341086275 -12.930288301759097 C105.21297466059198 -12.628514892139831, 105.50522591032122 -12.326741482520566, 105.72344144735568 -12.101416024703706 M104.92072341086275 -12.930288301759097 C105.13970163044027 -12.704175311599128, 105.3586798500178 -12.47806232143916, 105.72344144735568 -12.101416024703706 M105.72344144735568 -12.101416024703706 C105.89632797181105 -11.89833367555651, 106.0692144962664 -11.695251326409313, 106.47140418442453 -11.222816433457204 M105.72344144735568 -12.101416024703706 C105.98644392989114 -11.792478343452354, 106.2494464124266 -11.483540662201001, 106.47140418442453 -11.222816433457204 M106.47140418442453 -11.222816433457204 C106.74165396417852 -10.860706348848273, 107.01190374393252 -10.498596264239342, 107.1615380827452 -10.298099882199057 M106.47140418442453 -11.222816433457204 C106.65874755604541 -10.971793382817475, 106.84609092766631 -10.720770332177745, 107.1615380827452 -10.298099882199057 M107.1615380827452 -10.298099882199057 C107.39134361456352 -9.9450568739004, 107.62114914638185 -9.592013865601743, 107.79100723409623 -9.331066229589453 M107.1615380827452 -10.298099882199057 C107.4069369536794 -9.921101317620554, 107.65233582461363 -9.544102753042052, 107.79100723409623 -9.331066229589453 M107.79100723409623 -9.331066229589453 C107.92365233873839 -9.095541414523955, 108.05629744338056 -8.86001659945846, 108.357225014714 -8.325689224335035 M107.79100723409623 -9.331066229589453 C107.98783790623658 -8.981573439937433, 108.18466857837693 -8.632080650285411, 108.357225014714 -8.325689224335035 M108.357225014714 -8.325689224335035 C108.49295416661674 -8.043844736270398, 108.62868331851946 -7.7620002482057595, 108.85786471428463 -7.286100176203093 M108.357225014714 -8.325689224335035 C108.51140531474509 -8.005530532390535, 108.66558561477619 -7.685371840446038, 108.85786471428463 -7.286100176203093 M108.85786471428463 -7.286100176203093 C109.01710110766719 -6.892783205921928, 109.17633750104974 -6.499466235640764, 109.29086909689568 -6.216570979583546 M108.85786471428463 -7.286100176203093 C108.96970397309327 -7.009855044680766, 109.08154323190192 -6.733609913158437, 109.29086909689568 -6.216570979583546 M109.29086909689568 -6.216570979583546 C109.42104719246551 -5.824495296790074, 109.55122528803533 -5.432419613996602, 109.6544588546599 -5.121496559358589 M109.29086909689568 -6.216570979583546 C109.42668887440635 -5.807503449664175, 109.56250865191704 -5.398435919744804, 109.6544588546599 -5.121496559358589 M109.6544588546599 -5.121496559358589 C109.74518269804884 -4.775527224554124, 109.83590654143777 -4.429557889749658, 109.94713991927283 -4.005376811213661 M109.6544588546599 -5.121496559358589 C109.72922712715186 -4.836372731572437, 109.80399539964382 -4.551248903786284, 109.94713991927283 -4.005376811213661 M109.94713991927283 -4.005376811213661 C109.99896588209185 -3.7392614455590922, 110.05079184491088 -3.4731460799045237, 110.1677096014601 -2.872798110600833 M109.94713991927283 -4.005376811213661 C110.02212331978988 -3.620352897305919, 110.09710672030693 -3.2353289833981775, 110.1677096014601 -2.872798110600833 M110.1677096014601 -2.872798110600833 C110.20612931356058 -2.5748224103797406, 110.24454902566107 -2.276846710158648, 110.31526153308556 -1.728414466338275 M110.1677096014601 -2.872798110600833 C110.20155361422685 -2.6103106308381845, 110.23539762699359 -2.3478231510755365, 110.31526153308556 -1.728414466338275 M110.31526153308556 -1.728414466338275 C110.33537587000797 -1.4151174327712084, 110.35549020693038 -1.1018203992041418, 110.38918939161238 -0.576928396289793 M110.31526153308556 -1.728414466338275 C110.33850069056804 -1.366445830238372, 110.36173984805052 -1.0044771941384687, 110.38918939161238 -0.576928396289793 M110.38918939161238 -0.576928396289793 C110.38918939161238 -0.23125043313329663, 110.38918939161238 0.11442753002319972, 110.38918939161238 0.5769283962897886 M110.38918939161238 -0.576928396289793 C110.38918939161238 -0.23506360004270188, 110.38918939161238 0.10680119620438921, 110.38918939161238 0.5769283962897886 M110.38918939161238 0.5769283962897886 C110.3609566860981 1.0166755737041875, 110.33272398058385 1.4564227511185863, 110.31526153308556 1.7284144663382628 M110.38918939161238 0.5769283962897886 C110.3648262547673 0.9564039182220166, 110.34046311792221 1.3358794401542446, 110.31526153308556 1.7284144663382628 M110.31526153308556 1.7284144663382628 C110.27106572773093 2.0711884052199014, 110.2268699223763 2.41396234410154, 110.1677096014601 2.8727981106008205 M110.31526153308556 1.7284144663382628 C110.28384312367756 1.972089445440061, 110.25242471426955 2.2157644245418595, 110.1677096014601 2.8727981106008205 M110.1677096014601 2.8727981106008205 C110.11076197281758 3.1652121477945867, 110.05381434417507 3.4576261849883534, 109.94713991927283 4.005376811213657 M110.1677096014601 2.8727981106008205 C110.0950034097558 3.2461290385433568, 110.0222972180515 3.6194599664858926, 109.94713991927283 4.005376811213657 M109.94713991927283 4.005376811213657 C109.8540843959918 4.360237852003131, 109.76102887271077 4.715098892792604, 109.6544588546599 5.121496559358577 M109.94713991927283 4.005376811213657 C109.8618511430154 4.330619879472665, 109.77656236675799 4.655862947731672, 109.6544588546599 5.121496559358577 M109.6544588546599 5.121496559358577 C109.52115589910906 5.522983822536016, 109.38785294355823 5.9244710857134555, 109.29086909689569 6.216570979583534 M109.6544588546599 5.121496559358577 C109.56187028076084 5.400358591956617, 109.46928170686179 5.679220624554658, 109.29086909689569 6.216570979583534 M109.29086909689569 6.216570979583534 C109.1816400116511 6.486368931938387, 109.0724109264065 6.756166884293239, 108.85786471428463 7.286100176203088 M109.29086909689569 6.216570979583534 C109.16834551697742 6.519206590813907, 109.04582193705917 6.821842202044279, 108.85786471428463 7.286100176203088 M108.85786471428463 7.286100176203088 C108.73942210388977 7.53204879095391, 108.6209794934949 7.777997405704732, 108.357225014714 8.325689224335031 M108.85786471428463 7.286100176203088 C108.7271301706656 7.557573253299123, 108.59639562704658 7.8290463303951565, 108.357225014714 8.325689224335031 M108.357225014714 8.325689224335031 C108.16617053219555 8.66492580441074, 107.9751160496771 9.004162384486445, 107.79100723409623 9.33106622958945 M108.357225014714 8.325689224335031 C108.17296310758672 8.652864898980873, 107.98870120045945 8.980040573626715, 107.79100723409623 9.33106622958945 M107.79100723409623 9.33106622958945 C107.53993546603267 9.716779887544796, 107.28886369796912 10.102493545500144, 107.16153808274521 10.298099882199049 M107.79100723409623 9.33106622958945 C107.5802685656951 9.65481741550956, 107.36952989729399 9.978568601429672, 107.16153808274521 10.298099882199049 M107.16153808274521 10.298099882199049 C107.01529189161528 10.49405645501107, 106.86904570048533 10.69001302782309, 106.47140418442454 11.2228164334572 M107.16153808274521 10.298099882199049 C106.9639765293533 10.562814365516441, 106.76641497596138 10.827528848833833, 106.47140418442454 11.2228164334572 M106.47140418442454 11.2228164334572 C106.22238640133557 11.515326890986762, 105.97336861824661 11.807837348516323, 105.72344144735568 12.101416024703695 M106.47140418442454 11.2228164334572 C106.30263187937678 11.421065986382509, 106.13385957432902 11.619315539307818, 105.72344144735568 12.101416024703695 M105.72344144735568 12.101416024703695 C105.46304707784684 12.370294589996915, 105.20265270833798 12.639173155290134, 104.92072341086276 12.930288301759093 M105.72344144735568 12.101416024703695 C105.55125552472597 12.279212126546021, 105.37906960209628 12.457008228388348, 104.92072341086276 12.930288301759093 M104.92072341086276 12.930288301759093 C104.72670280441784 13.106492683028437, 104.5326821979729 13.282697064297778, 104.0665486155402 13.706027250644409 M104.92072341086276 12.930288301759093 C104.74581265023016 13.08913762668049, 104.57090188959758 13.247986951601884, 104.0665486155402 13.706027250644409 M104.0665486155402 13.706027250644409 C103.75575869452179 13.953873942189455, 103.44496877350338 14.2017206337345, 103.16442704884189 14.425445193623217 M104.0665486155402 13.706027250644409 C103.71053623752813 13.989937648221773, 103.35452385951608 14.273848045799136, 103.16442704884189 14.425445193623217 M103.16442704884189 14.425445193623217 C102.94818464769737 14.576286531678958, 102.73194224655285 14.727127869734701, 102.21806572178988 15.085585888053126 M103.16442704884189 14.425445193623217 C102.92152730121202 14.59488154260921, 102.67862755358216 14.764317891595201, 102.21806572178988 15.085585888053126 M102.21806572178988 15.085585888053126 C102.00953145302503 15.212000587261771, 101.80099718426017 15.338415286470415, 101.23135343607088 15.68373667422101 M102.21806572178988 15.085585888053126 C101.85738740416562 15.304231203778022, 101.49670908654134 15.522876519502917, 101.23135343607088 15.68373667422101 M101.23135343607088 15.68373667422101 C100.91513599101789 15.84870711275821, 100.5989185459649 16.013677551295412, 100.20834480411605 16.217439622243543 M101.23135343607088 15.68373667422101 C100.85534941029775 15.87989773362478, 100.47934538452462 16.07605879302855, 100.20834480411605 16.217439622243543 M100.20834480411605 16.217439622243543 C99.94913003997209 16.332186308997297, 99.68991527582814 16.446932995751048, 99.15324358782874 16.68450163222839 M100.20834480411605 16.217439622243543 C99.82949741046633 16.38514412530363, 99.45065001681662 16.552848628363716, 99.15324358782874 16.68450163222839 M99.15324358782874 16.68450163222839 C98.81361554829492 16.809487890264016, 98.47398750876111 16.934474148299643, 98.07038542442518 17.08300344619203 M99.15324358782874 16.68450163222839 C98.80508346506933 16.81262777576075, 98.45692334230992 16.940753919293105, 98.07038542442518 17.08300344619203 M98.07038542442518 17.08300344619203 C97.83205580731416 17.153738425532893, 97.59372619020316 17.224473404873756, 96.96422001037115 17.411307534702527 M98.07038542442518 17.08300344619203 C97.63439021619412 17.212404535409462, 97.19839500796306 17.341805624626897, 96.96422001037115 17.411307534702527 M96.96422001037115 17.411307534702527 C96.6483928230884 17.48339302923481, 96.33256563580564 17.555478523767096, 95.8392928166247 17.668064825839174 M96.96422001037115 17.411307534702527 C96.5279016475139 17.510894353781286, 96.09158328465665 17.610481172860045, 95.8392928166247 17.668064825839174 M95.8392928166247 17.668064825839174 C95.50210958842099 17.72257799528016, 95.16492636021728 17.777091164721153, 94.70022641032112 17.85222024881843 M95.8392928166247 17.668064825839174 C95.52302273814146 17.719196919417254, 95.20675265965824 17.770329012995337, 94.70022641032112 17.85222024881843 M94.70022641032112 17.85222024881843 C94.25336388461994 17.895328539242005, 93.80650135891878 17.938436829665584, 93.55170145965283 17.963017069506055 M94.70022641032112 17.85222024881843 C94.26399861865923 17.894302619239376, 93.82777082699732 17.936384989660322, 93.55170145965283 17.963017069506055 M93.55170145965283 17.963017069506055 C93.14441257904993 17.976078031167276, 92.73712369844701 17.989138992828497, 92.3984375 18 M93.55170145965283 17.963017069506055 C93.22123045453101 17.973614631417522, 92.89075944940917 17.98421219332899, 92.3984375 18 M92.3984375 18 C92.3984375 18, 92.3984375 18, 92.3984375 18 M92.3984375 18 C92.3984375 18, 92.3984375 18, 92.3984375 18 M92.3984375 18 C30.415443970122944 18, -31.567549559754113 18, -92.3984375 18 M92.3984375 18 C33.838730400886334 18, -24.720976698227332 18, -92.3984375 18 M-92.3984375 18 C-92.65648574195008 17.991724895141093, -92.91453398390016 17.983449790282187, -93.55170145965282 17.963017069506055 M-92.3984375 18 C-92.76898734570268 17.988117187679837, -93.13953719140537 17.97623437535967, -93.55170145965282 17.963017069506055 M-93.55170145965282 17.963017069506055 C-93.89642319305794 17.929762178473005, -94.24114492646305 17.896507287439952, -94.70022641032111 17.85222024881843 M-93.55170145965282 17.963017069506055 C-93.9933766746039 17.920409192711887, -94.43505188955497 17.87780131591772, -94.70022641032111 17.85222024881843 M-94.70022641032111 17.85222024881843 C-95.10545015137184 17.786706816922393, -95.51067389242256 17.721193385026357, -95.8392928166247 17.668064825839174 M-94.70022641032111 17.85222024881843 C-94.94531354110134 17.812596462192968, -95.19040067188158 17.772972675567505, -95.8392928166247 17.668064825839174 M-95.8392928166247 17.668064825839174 C-96.15522672491834 17.595954972932578, -96.47116063321195 17.52384512002598, -96.96422001037112 17.41130753470253 M-95.8392928166247 17.668064825839174 C-96.1972455834968 17.586364442660724, -96.55519835036887 17.50466405948227, -96.96422001037112 17.41130753470253 M-96.96422001037112 17.41130753470253 C-97.264200577173 17.32227487710586, -97.56418114397489 17.23324221950919, -98.07038542442517 17.083003446192038 M-96.96422001037112 17.41130753470253 C-97.23306765575131 17.33151496476378, -97.50191530113149 17.25172239482503, -98.07038542442517 17.083003446192038 M-98.07038542442517 17.083003446192038 C-98.47178198764999 16.935285800456146, -98.87317855087483 16.787568154720255, -99.15324358782874 16.68450163222839 M-98.07038542442517 17.083003446192038 C-98.30815115932012 16.995503457868338, -98.54591689421505 16.90800346954464, -99.15324358782874 16.68450163222839 M-99.15324358782874 16.68450163222839 C-99.48694336447457 16.536782639959448, -99.8206431411204 16.389063647690506, -100.20834480411604 16.217439622243546 M-99.15324358782874 16.68450163222839 C-99.56608440078404 16.50174925082068, -99.97892521373933 16.31899686941297, -100.20834480411604 16.217439622243546 M-100.20834480411604 16.217439622243546 C-100.60097939669006 16.012602406792137, -100.99361398926409 15.807765191340726, -101.23135343607088 15.683736674221013 M-100.20834480411604 16.217439622243546 C-100.46576900532096 16.08314158136301, -100.72319320652588 15.948843540482471, -101.23135343607088 15.683736674221013 M-101.23135343607088 15.683736674221013 C-101.48514880275836 15.529884431467938, -101.73894416944583 15.376032188714865, -102.21806572178987 15.085585888053139 M-101.23135343607088 15.683736674221013 C-101.5011048968264 15.520211753475474, -101.77085635758192 15.356686832729933, -102.21806572178987 15.085585888053139 M-102.21806572178987 15.085585888053139 C-102.44587195238145 14.926678123165235, -102.67367818297302 14.767770358277332, -103.16442704884189 14.42544519362322 M-102.21806572178987 15.085585888053139 C-102.56175963906533 14.845839889631664, -102.90545355634077 14.60609389121019, -103.16442704884189 14.42544519362322 M-103.16442704884189 14.42544519362322 C-103.44439224043616 14.202180403513427, -103.72435743203043 13.978915613403634, -104.06654861554019 13.706027250644423 M-103.16442704884189 14.42544519362322 C-103.3452343809819 14.281256157726727, -103.52604171312194 14.137067121830233, -104.06654861554019 13.706027250644423 M-104.06654861554019 13.706027250644423 C-104.40290446026404 13.400557771954194, -104.7392603049879 13.095088293263963, -104.92072341086275 12.930288301759106 M-104.06654861554019 13.706027250644423 C-104.38732477056028 13.414706833927145, -104.70810092558038 13.123386417209868, -104.92072341086275 12.930288301759106 M-104.92072341086275 12.930288301759106 C-105.08297744188614 12.762747693423766, -105.24523147290952 12.595207085088427, -105.72344144735568 12.101416024703703 M-104.92072341086275 12.930288301759106 C-105.11679919242363 12.72782395917645, -105.3128749739845 12.525359616593791, -105.72344144735568 12.101416024703703 M-105.72344144735568 12.101416024703703 C-105.92330044902576 11.866650269042664, -106.12315945069585 11.631884513381625, -106.47140418442453 11.222816433457206 M-105.72344144735568 12.101416024703703 C-105.89175447807416 11.903705961539007, -106.06006750879266 11.70599589837431, -106.47140418442453 11.222816433457206 M-106.47140418442453 11.222816433457206 C-106.65165297143594 10.981299479864235, -106.83190175844733 10.739782526271263, -107.1615380827452 10.29809988219906 M-106.47140418442453 11.222816433457206 C-106.67044189366213 10.956124035787163, -106.86947960289972 10.689431638117119, -107.1615380827452 10.29809988219906 M-107.1615380827452 10.29809988219906 C-107.35491854458661 10.001015562885765, -107.54829900642804 9.703931243572471, -107.79100723409623 9.33106622958946 M-107.1615380827452 10.29809988219906 C-107.35653095134477 9.998538473113404, -107.55152381994434 9.69897706402775, -107.79100723409623 9.33106622958946 M-107.79100723409623 9.33106622958946 C-107.90434816688114 9.129817926415882, -108.01768909966604 8.928569623242302, -108.357225014714 8.325689224335036 M-107.79100723409623 9.33106622958946 C-107.94995357337623 9.048840909135668, -108.10889991265624 8.766615588681875, -108.357225014714 8.325689224335036 M-108.357225014714 8.325689224335036 C-108.54011567565286 7.945912853662256, -108.72300633659171 7.566136482989476, -108.85786471428463 7.286100176203095 M-108.357225014714 8.325689224335036 C-108.46254327162613 8.106993610407304, -108.56786152853826 7.888297996479571, -108.85786471428463 7.286100176203095 M-108.85786471428463 7.286100176203095 C-108.97204807704762 7.004065062593378, -109.0862314398106 6.722029948983661, -109.29086909689568 6.2165709795835475 M-108.85786471428463 7.286100176203095 C-108.99219294086622 6.954306859486992, -109.12652116744779 6.622513542770888, -109.29086909689568 6.2165709795835475 M-109.29086909689568 6.2165709795835475 C-109.39778525866163 5.894556535121515, -109.50470142042758 5.572542090659483, -109.6544588546599 5.121496559358584 M-109.29086909689568 6.2165709795835475 C-109.36410160396485 5.996006336306624, -109.43733411103405 5.7754416930297, -109.6544588546599 5.121496559358584 M-109.6544588546599 5.121496559358584 C-109.71583450038678 4.887444621828867, -109.77721014611365 4.653392684299151, -109.94713991927281 4.005376811213663 M-109.6544588546599 5.121496559358584 C-109.71431649015175 4.893233452764798, -109.77417412564361 4.664970346171012, -109.94713991927281 4.005376811213663 M-109.94713991927281 4.005376811213663 C-110.01084513696986 3.6782639824418957, -110.0745503546669 3.351151153670128, -110.1677096014601 2.8727981106008347 M-109.94713991927281 4.005376811213663 C-110.02318022498447 3.6149259125086153, -110.09922053069613 3.224475013803567, -110.1677096014601 2.8727981106008347 M-110.1677096014601 2.8727981106008347 C-110.20448450145189 2.5875792482899196, -110.24125940144367 2.3023603859790045, -110.31526153308556 1.7284144663382852 M-110.1677096014601 2.8727981106008347 C-110.20080230847033 2.616137609923626, -110.23389501548056 2.3594771092464173, -110.31526153308556 1.7284144663382852 M-110.31526153308556 1.7284144663382852 C-110.33714915330877 1.3874971139926777, -110.35903677353198 1.04657976164707, -110.38918939161238 0.5769283962897952 M-110.31526153308556 1.7284144663382852 C-110.3374530007952 1.3827644441304419, -110.35964446850483 1.0371144219225985, -110.38918939161238 0.5769283962897952 M-110.38918939161238 0.5769283962897952 C-110.38918939161238 0.21142287424306855, -110.38918939161238 -0.1540826478036581, -110.38918939161238 -0.5769283962897864 M-110.38918939161238 0.5769283962897952 C-110.38918939161238 0.333871692094312, -110.38918939161238 0.09081498789882886, -110.38918939161238 -0.5769283962897864 M-110.38918939161238 -0.5769283962897864 C-110.3737481964448 -0.8174374749332073, -110.35830700127723 -1.0579465535766281, -110.31526153308556 -1.7284144663382603 M-110.38918939161238 -0.5769283962897864 C-110.37115729238528 -0.8577928970003137, -110.35312519315819 -1.138657397710841, -110.31526153308556 -1.7284144663382603 M-110.31526153308556 -1.7284144663382603 C-110.26798242588757 -2.095101885450159, -110.22070331868959 -2.461789304562058, -110.1677096014601 -2.8727981106008262 M-110.31526153308556 -1.7284144663382603 C-110.26052427684134 -2.1529458166746003, -110.20578702059713 -2.5774771670109407, -110.1677096014601 -2.8727981106008262 M-110.1677096014601 -2.8727981106008262 C-110.10991409618842 -3.1695658150865853, -110.05211859091672 -3.466333519572345, -109.94713991927283 -4.005376811213655 M-110.1677096014601 -2.8727981106008262 C-110.10327405853951 -3.203661005041245, -110.03883851561892 -3.5345238994816643, -109.94713991927283 -4.005376811213655 M-109.94713991927283 -4.005376811213655 C-109.87029176316216 -4.298432136665197, -109.79344360705147 -4.59148746211674, -109.6544588546599 -5.121496559358575 M-109.94713991927283 -4.005376811213655 C-109.84151988072345 -4.4081517942167014, -109.73589984217408 -4.8109267772197475, -109.6544588546599 -5.121496559358575 M-109.6544588546599 -5.121496559358575 C-109.51798480457097 -5.532534654039458, -109.38151075448204 -5.943572748720341, -109.29086909689569 -6.2165709795835244 M-109.6544588546599 -5.121496559358575 C-109.56688178029543 -5.385264753832457, -109.47930470593097 -5.649032948306338, -109.29086909689569 -6.2165709795835244 M-109.29086909689569 -6.2165709795835244 C-109.12159842824221 -6.634672803783364, -108.95232775958874 -7.052774627983204, -108.85786471428463 -7.286100176203086 M-109.29086909689569 -6.2165709795835244 C-109.14735777765804 -6.571046712703118, -109.0038464584204 -6.925522445822711, -108.85786471428463 -7.286100176203086 M-108.85786471428463 -7.286100176203086 C-108.67995338650371 -7.65553685503274, -108.50204205872281 -8.024973533862395, -108.357225014714 -8.32568922433503 M-108.85786471428463 -7.286100176203086 C-108.70732628518637 -7.598696445232019, -108.55678785608809 -7.911292714260952, -108.357225014714 -8.32568922433503 M-108.357225014714 -8.32568922433503 C-108.1821266702579 -8.636594065546856, -108.0070283258018 -8.947498906758682, -107.79100723409623 -9.331066229589455 M-108.357225014714 -8.32568922433503 C-108.20781569160118 -8.590980606856373, -108.05840636848836 -8.856271989377717, -107.79100723409623 -9.331066229589455 M-107.79100723409623 -9.331066229589455 C-107.63104461324629 -9.576811771193062, -107.47108199239635 -9.82255731279667, -107.16153808274521 -10.298099882199054 M-107.79100723409623 -9.331066229589455 C-107.55561349416715 -9.692694226190227, -107.32021975423805 -10.054322222790997, -107.16153808274521 -10.298099882199054 M-107.16153808274521 -10.298099882199054 C-106.89940932141732 -10.649328541957003, -106.63728056008944 -11.000557201714951, -106.47140418442454 -11.2228164334572 M-107.16153808274521 -10.298099882199054 C-106.9054321739355 -10.641258468275806, -106.64932626512577 -10.984417054352557, -106.47140418442454 -11.2228164334572 M-106.47140418442454 -11.2228164334572 C-106.27986674423954 -11.447807209487605, -106.08832930405453 -11.67279798551801, -105.72344144735568 -12.101416024703695 M-106.47140418442454 -11.2228164334572 C-106.19939579410254 -11.542332966445295, -105.92738740378054 -11.86184949943339, -105.72344144735568 -12.101416024703695 M-105.72344144735568 -12.101416024703695 C-105.42748627771664 -12.407014035727316, -105.13153110807761 -12.712612046750937, -104.92072341086276 -12.930288301759086 M-105.72344144735568 -12.101416024703695 C-105.52849431421475 -12.302714945129, -105.33354718107381 -12.504013865554306, -104.92072341086276 -12.930288301759086 M-104.92072341086276 -12.930288301759086 C-104.66411741893997 -13.163331074200878, -104.40751142701716 -13.39637384664267, -104.0665486155402 -13.706027250644407 M-104.92072341086276 -12.930288301759086 C-104.59461320455657 -13.226452962723139, -104.26850299825037 -13.522617623687191, -104.0665486155402 -13.706027250644407 M-104.0665486155402 -13.706027250644407 C-103.85269736611734 -13.87656793123839, -103.6388461166945 -14.047108611832371, -103.1644270488419 -14.425445193623215 M-104.0665486155402 -13.706027250644407 C-103.71039583249106 -13.99004961750251, -103.35424304944192 -14.274071984360612, -103.1644270488419 -14.425445193623215 M-103.1644270488419 -14.425445193623215 C-102.88735928161704 -14.618715673968943, -102.61029151439219 -14.81198615431467, -102.21806572178988 -15.085585888053124 M-103.1644270488419 -14.425445193623215 C-102.90574005101308 -14.605894044928943, -102.64705305318428 -14.786342896234672, -102.21806572178988 -15.085585888053124 M-102.21806572178988 -15.085585888053124 C-101.91190171478245 -15.271184308320453, -101.605737707775 -15.456782728587783, -101.23135343607089 -15.683736674221008 M-102.21806572178988 -15.085585888053124 C-101.95386371706769 -15.245746695939037, -101.68966171234551 -15.405907503824947, -101.23135343607089 -15.683736674221008 M-101.23135343607089 -15.683736674221008 C-101.02480672344088 -15.791491961900602, -100.81826001081086 -15.899247249580196, -100.20834480411605 -16.217439622243543 M-101.23135343607089 -15.683736674221008 C-100.84760968051422 -15.883935545695312, -100.46386592495756 -16.08413441716962, -100.20834480411605 -16.217439622243543 M-100.20834480411605 -16.217439622243543 C-99.87080749285235 -16.3668573772514, -99.53327018158863 -16.516275132259253, -99.15324358782874 -16.684501632228386 M-100.20834480411605 -16.217439622243543 C-99.82095899563095 -16.388923828268176, -99.43357318714585 -16.56040803429281, -99.15324358782874 -16.684501632228386 M-99.15324358782874 -16.684501632228386 C-98.7615441581572 -16.82865064317735, -98.36984472848565 -16.972799654126316, -98.07038542442518 -17.08300344619203 M-99.15324358782874 -16.684501632228386 C-98.87897628326989 -16.785434535605212, -98.60470897871105 -16.88636743898204, -98.07038542442518 -17.08300344619203 M-98.07038542442518 -17.08300344619203 C-97.77289200588838 -17.171297931238932, -97.47539858735159 -17.259592416285834, -96.96422001037115 -17.411307534702523 M-98.07038542442518 -17.08300344619203 C-97.69529961539928 -17.19432694544533, -97.32021380637337 -17.30565044469863, -96.96422001037115 -17.411307534702523 M-96.96422001037115 -17.411307534702523 C-96.71741989811431 -17.467638049803902, -96.47061978585747 -17.523968564905285, -95.8392928166247 -17.668064825839174 M-96.96422001037115 -17.411307534702523 C-96.61118594597622 -17.4918852561381, -96.25815188158127 -17.57246297757368, -95.8392928166247 -17.668064825839174 M-95.8392928166247 -17.668064825839174 C-95.60306903948786 -17.70625565418391, -95.366845262351 -17.74444648252864, -94.70022641032112 -17.85222024881843 M-95.8392928166247 -17.668064825839174 C-95.51541735063927 -17.72042649948795, -95.19154188465383 -17.772788173136725, -94.70022641032112 -17.85222024881843 M-94.70022641032112 -17.85222024881843 C-94.4641867657307 -17.874990709452863, -94.22814712114028 -17.897761170087293, -93.55170145965283 -17.963017069506055 M-94.70022641032112 -17.85222024881843 C-94.37286654049733 -17.883800261752487, -94.04550667067353 -17.91538027468654, -93.55170145965283 -17.963017069506055 M-93.55170145965283 -17.963017069506055 C-93.24604025173988 -17.972819029510372, -92.94037904382695 -17.982620989514693, -92.3984375 -18 M-93.55170145965283 -17.963017069506055 C-93.24893045414902 -17.97272634634455, -92.94615944864522 -17.982435623183047, -92.3984375 -18 M-92.3984375 -18 C-92.3984375 -18, -92.3984375 -18, -92.3984375 -18 M-92.3984375 -18 C-92.3984375 -18, -92.3984375 -18, -92.3984375 -18" stroke="#6366f1" stroke-width="1.3" fill="none" stroke-dasharray="0 0" style=""/></g><g class="label" style="" transform="translate(-98.3984375, -10.5)"><rect/><foreignObject width="196.796875" height="21"><div xmlns="http://www.w3.org/1999/xhtml" style="display: table-cell; white-space: nowrap; line-height: 1.5; max-width: 200px; text-align: center;"><span class="nodeLabel"><p>Write solution in Monaco Editor</p></span></div></foreignObject></g></g><g class="node default" id="my-svg-flowchart-RUNTYPE-1" data-look="classic" transform="translate(245.5546875, 147.0625)"><polygon points="53.0625,0 106.125,-53.0625 53.0625,-106.125 0,-53.0625" class="label-container" transform="translate(-52.5625, 53.0625)"/><g class="label" style="" transform="translate(-27.5625, -10.5)"><rect/><foreignObject width="55.125" height="21"><div xmlns="http://www.w3.org/1999/xhtml" style="display: table-cell; white-space: nowrap; line-height: 1.5; max-width: 200px; text-align: center;"><span class="nodeLabel"><p>Run type</p></span></div></foreignObject></g></g><g class="node default" id="my-svg-flowchart-CUSTOM-3" data-look="classic" transform="translate(109.953125, 307.125)"><rect class="basic label-container" style="" x="-101.953125" y="-36" width="203.90625" height="72"/><g class="label" style="" transform="translate(-71.953125, -21)"><rect/><foreignObject width="143.90625" height="42"><div xmlns="http://www.w3.org/1999/xhtml" style="display: table-cell; white-space: nowrap; line-height: 1.5; max-width: 200px; text-align: center;"><span class="nodeLabel"><p>Enter stdin in input box<br />Click Run</p></span></div></foreignObject></g></g><g class="node default" id="my-svg-flowchart-TESTS-5" data-look="classic" transform="translate(381.15625, 307.125)"><rect class="basic label-container" style="" x="-119.25" y="-36" width="238.5" height="72"/><g class="label" style="" transform="translate(-89.25, -21)"><rect/><foreignObject width="178.5" height="42"><div xmlns="http://www.w3.org/1999/xhtml" style="display: table-cell; white-space: nowrap; line-height: 1.5; max-width: 200px; text-align: center;"><span class="nodeLabel"><p>Click Run Tests<br />auto-uses problem examples</p></span></div></foreignObject></g></g><g class="node default" id="my-svg-flowchart-JUDGE0-8" data-look="classic" transform="translate(245.5546875, 429.125)"><rect class="basic label-container" style="" x="-89.6796875" y="-36" width="179.359375" height="72"/><g class="label" style="" transform="translate(-59.6796875, -21)"><rect/><foreignObject width="119.359375" height="42"><div xmlns="http://www.w3.org/1999/xhtml" style="display: table-cell; white-space: nowrap; line-height: 1.5; max-width: 200px; text-align: center;"><span class="nodeLabel"><p>Sent to Judge0 CE<br />via /api/coding/run</p></span></div></foreignObject></g></g><g class="node default" id="my-svg-flowchart-RESULT-10" data-look="classic" transform="translate(245.5546875, 561.625)"><rect class="basic label-container" style="" x="-130" y="-46.5" width="260" height="93"/><g class="label" style="" transform="translate(-100, -31.5)"><rect/><foreignObject width="200" height="63"><div xmlns="http://www.w3.org/1999/xhtml" style="display: table; white-space: break-spaces; line-height: 1.5; max-width: 200px; text-align: center; width: 200px;"><span class="nodeLabel"><p>Status + stdout + stderr<br />Time + memory + per-test pass/fail</p></span></div></foreignObject></g></g></g></g></g><defs><filter id="my-svg-drop-shadow" height="130%" width="130%"><feDropShadow dx="4" dy="4" stdDeviation="0" flood-opacity="0.06" flood-color="#FFFFFF"/></filter></defs><defs><filter id="my-svg-drop-shadow-small" height="150%" width="150%"><feDropShadow dx="2" dy="2" stdDeviation="0" flood-opacity="0.06" flood-color="#FFFFFF"/></filter></defs><linearGradient id="my-svg-gradient" gradientUnits="objectBoundingBox" x1="0%" y1="0%" x2="100%" y2="0%"><stop offset="0%" stop-color="#cccccc" stop-opacity="1"/><stop offset="100%" stop-color="hsl(180, 0%, 18.3529411765%)" stop-opacity="1"/></linearGradient></svg>